<mxfile host="Electron" modified="2023-06-09T22:54:12.548Z" agent="Mozilla/5.0 (Windows NT 10.0; Win64; x64) AppleWebKit/537.36 (KHTML, like Gecko) draw.io/21.2.8 Chrome/112.0.5615.165 Electron/24.2.0 Safari/537.36" etag="USUNx1Dti9Yxn-JhmFPH" version="21.2.8" type="device">
  <diagram name="Page-1" id="7ZvuEQ80qFv35ahoECpq">
    <mxGraphModel dx="1886" dy="1706" grid="1" gridSize="10" guides="1" tooltips="1" connect="1" arrows="1" fold="1" page="1" pageScale="1" pageWidth="850" pageHeight="1100" math="0" shadow="0">
      <root>
        <mxCell id="0" />
        <mxCell id="1" parent="0" />
        <mxCell id="mjIF9ZXAO5rnZLR19kHG-1" value="" style="shape=umlLifeline;perimeter=lifelinePerimeter;whiteSpace=wrap;html=1;container=1;dropTarget=0;collapsible=0;recursiveResize=0;outlineConnect=0;portConstraint=eastwest;newEdgeStyle={&quot;edgeStyle&quot;:&quot;elbowEdgeStyle&quot;,&quot;elbow&quot;:&quot;vertical&quot;,&quot;curved&quot;:0,&quot;rounded&quot;:0};participant=umlActor;" parent="1" vertex="1">
          <mxGeometry x="60" y="40" width="20" height="1480" as="geometry" />
        </mxCell>
        <mxCell id="mjIF9ZXAO5rnZLR19kHG-2" value="" style="shape=umlLifeline;perimeter=lifelinePerimeter;whiteSpace=wrap;html=1;container=1;dropTarget=0;collapsible=0;recursiveResize=0;outlineConnect=0;portConstraint=eastwest;newEdgeStyle={&quot;edgeStyle&quot;:&quot;elbowEdgeStyle&quot;,&quot;elbow&quot;:&quot;vertical&quot;,&quot;curved&quot;:0,&quot;rounded&quot;:0};participant=umlBoundary;" parent="1" vertex="1">
          <mxGeometry x="230" y="40" width="50" height="1480" as="geometry" />
        </mxCell>
        <mxCell id="mjIF9ZXAO5rnZLR19kHG-5" value="" style="html=1;points=[];perimeter=orthogonalPerimeter;outlineConnect=0;targetShapes=umlLifeline;portConstraint=eastwest;newEdgeStyle={&quot;edgeStyle&quot;:&quot;elbowEdgeStyle&quot;,&quot;elbow&quot;:&quot;vertical&quot;,&quot;curved&quot;:0,&quot;rounded&quot;:0};" parent="mjIF9ZXAO5rnZLR19kHG-2" vertex="1">
          <mxGeometry x="20" y="100" width="10" height="60" as="geometry" />
        </mxCell>
        <mxCell id="mjIF9ZXAO5rnZLR19kHG-3" value="φαρμακοποιός" style="text;html=1;align=center;verticalAlign=middle;resizable=0;points=[];autosize=1;strokeColor=none;fillColor=none;" parent="1" vertex="1">
          <mxGeometry x="20" width="100" height="30" as="geometry" />
        </mxCell>
        <mxCell id="mjIF9ZXAO5rnZLR19kHG-4" value="αρχική οθόνη" style="text;html=1;align=center;verticalAlign=middle;resizable=0;points=[];autosize=1;strokeColor=none;fillColor=none;" parent="1" vertex="1">
          <mxGeometry x="210" y="3" width="90" height="30" as="geometry" />
        </mxCell>
        <mxCell id="mjIF9ZXAO5rnZLR19kHG-7" value="" style="shape=umlLifeline;perimeter=lifelinePerimeter;whiteSpace=wrap;html=1;container=1;dropTarget=0;collapsible=0;recursiveResize=0;outlineConnect=0;portConstraint=eastwest;newEdgeStyle={&quot;edgeStyle&quot;:&quot;elbowEdgeStyle&quot;,&quot;elbow&quot;:&quot;vertical&quot;,&quot;curved&quot;:0,&quot;rounded&quot;:0};participant=umlBoundary;" parent="1" vertex="1">
          <mxGeometry x="380" y="40" width="50" height="1480" as="geometry" />
        </mxCell>
        <mxCell id="mjIF9ZXAO5rnZLR19kHG-9" value="" style="html=1;points=[];perimeter=orthogonalPerimeter;outlineConnect=0;targetShapes=umlLifeline;portConstraint=eastwest;newEdgeStyle={&quot;edgeStyle&quot;:&quot;elbowEdgeStyle&quot;,&quot;elbow&quot;:&quot;vertical&quot;,&quot;curved&quot;:0,&quot;rounded&quot;:0};" parent="mjIF9ZXAO5rnZLR19kHG-7" vertex="1">
          <mxGeometry x="20" y="160" width="10" height="720" as="geometry" />
        </mxCell>
        <mxCell id="mjIF9ZXAO5rnZLR19kHG-8" value="in stock ή &lt;br&gt;out of stock" style="text;html=1;align=center;verticalAlign=middle;resizable=0;points=[];autosize=1;strokeColor=none;fillColor=none;" parent="1" vertex="1">
          <mxGeometry x="365" y="-15" width="80" height="40" as="geometry" />
        </mxCell>
        <mxCell id="mjIF9ZXAO5rnZLR19kHG-11" value="frame" style="shape=umlFrame;whiteSpace=wrap;html=1;pointerEvents=0;fillColor=#f8cecc;strokeColor=#b85450;" parent="1" vertex="1">
          <mxGeometry x="-20" y="270" width="1410" height="680" as="geometry" />
        </mxCell>
        <mxCell id="mjIF9ZXAO5rnZLR19kHG-13" value="in stock" style="text;html=1;align=center;verticalAlign=middle;resizable=0;points=[];autosize=1;strokeColor=none;fillColor=none;" parent="1" vertex="1">
          <mxGeometry x="-20" y="298" width="60" height="30" as="geometry" />
        </mxCell>
        <mxCell id="mjIF9ZXAO5rnZLR19kHG-20" value="" style="shape=umlLifeline;perimeter=lifelinePerimeter;whiteSpace=wrap;html=1;container=1;dropTarget=0;collapsible=0;recursiveResize=0;outlineConnect=0;portConstraint=eastwest;newEdgeStyle={&quot;edgeStyle&quot;:&quot;elbowEdgeStyle&quot;,&quot;elbow&quot;:&quot;vertical&quot;,&quot;curved&quot;:0,&quot;rounded&quot;:0};participant=umlBoundary;" parent="1" vertex="1">
          <mxGeometry x="660" y="40" width="50" height="1480" as="geometry" />
        </mxCell>
        <mxCell id="mjIF9ZXAO5rnZLR19kHG-29" value="" style="html=1;points=[];perimeter=orthogonalPerimeter;outlineConnect=0;targetShapes=umlLifeline;portConstraint=eastwest;newEdgeStyle={&quot;edgeStyle&quot;:&quot;elbowEdgeStyle&quot;,&quot;elbow&quot;:&quot;vertical&quot;,&quot;curved&quot;:0,&quot;rounded&quot;:0};" parent="mjIF9ZXAO5rnZLR19kHG-20" vertex="1">
          <mxGeometry x="20" y="430" width="10" height="60" as="geometry" />
        </mxCell>
        <mxCell id="mjIF9ZXAO5rnZLR19kHG-71" value="" style="html=1;points=[];perimeter=orthogonalPerimeter;outlineConnect=0;targetShapes=umlLifeline;portConstraint=eastwest;newEdgeStyle={&quot;edgeStyle&quot;:&quot;elbowEdgeStyle&quot;,&quot;elbow&quot;:&quot;vertical&quot;,&quot;curved&quot;:0,&quot;rounded&quot;:0};" parent="mjIF9ZXAO5rnZLR19kHG-20" vertex="1">
          <mxGeometry x="20" y="1110" width="10" height="60" as="geometry" />
        </mxCell>
        <mxCell id="mjIF9ZXAO5rnZLR19kHG-22" value="" style="shape=umlLifeline;perimeter=lifelinePerimeter;whiteSpace=wrap;html=1;container=1;dropTarget=0;collapsible=0;recursiveResize=0;outlineConnect=0;portConstraint=eastwest;newEdgeStyle={&quot;edgeStyle&quot;:&quot;elbowEdgeStyle&quot;,&quot;elbow&quot;:&quot;vertical&quot;,&quot;curved&quot;:0,&quot;rounded&quot;:0};participant=umlBoundary;" parent="1" vertex="1">
          <mxGeometry x="520" y="40" width="50" height="1480" as="geometry" />
        </mxCell>
        <mxCell id="mjIF9ZXAO5rnZLR19kHG-23" value="" style="html=1;points=[];perimeter=orthogonalPerimeter;outlineConnect=0;targetShapes=umlLifeline;portConstraint=eastwest;newEdgeStyle={&quot;edgeStyle&quot;:&quot;elbowEdgeStyle&quot;,&quot;elbow&quot;:&quot;vertical&quot;,&quot;curved&quot;:0,&quot;rounded&quot;:0};" parent="mjIF9ZXAO5rnZLR19kHG-22" vertex="1">
          <mxGeometry x="20" y="280" width="10" height="80" as="geometry" />
        </mxCell>
        <mxCell id="mjIF9ZXAO5rnZLR19kHG-63" value="" style="html=1;points=[];perimeter=orthogonalPerimeter;outlineConnect=0;targetShapes=umlLifeline;portConstraint=eastwest;newEdgeStyle={&quot;edgeStyle&quot;:&quot;elbowEdgeStyle&quot;,&quot;elbow&quot;:&quot;vertical&quot;,&quot;curved&quot;:0,&quot;rounded&quot;:0};" parent="mjIF9ZXAO5rnZLR19kHG-22" vertex="1">
          <mxGeometry x="20" y="990" width="10" height="60" as="geometry" />
        </mxCell>
        <mxCell id="mjIF9ZXAO5rnZLR19kHG-24" value="Κατηγορίες Προϊόντων" style="text;html=1;align=center;verticalAlign=middle;resizable=0;points=[];autosize=1;strokeColor=none;fillColor=none;" parent="1" vertex="1">
          <mxGeometry x="475" y="-10" width="140" height="30" as="geometry" />
        </mxCell>
        <mxCell id="mjIF9ZXAO5rnZLR19kHG-31" value="προϊόντα κατηγορίας" style="text;html=1;align=center;verticalAlign=middle;resizable=0;points=[];autosize=1;strokeColor=none;fillColor=none;" parent="1" vertex="1">
          <mxGeometry x="630" y="-7" width="130" height="30" as="geometry" />
        </mxCell>
        <mxCell id="mjIF9ZXAO5rnZLR19kHG-32" value="" style="shape=umlLifeline;perimeter=lifelinePerimeter;whiteSpace=wrap;html=1;container=1;dropTarget=0;collapsible=0;recursiveResize=0;outlineConnect=0;portConstraint=eastwest;newEdgeStyle={&quot;edgeStyle&quot;:&quot;elbowEdgeStyle&quot;,&quot;elbow&quot;:&quot;vertical&quot;,&quot;curved&quot;:0,&quot;rounded&quot;:0};participant=umlBoundary;" parent="1" vertex="1">
          <mxGeometry x="820" y="40" width="50" height="1480" as="geometry" />
        </mxCell>
        <mxCell id="mjIF9ZXAO5rnZLR19kHG-35" value="" style="html=1;points=[];perimeter=orthogonalPerimeter;outlineConnect=0;targetShapes=umlLifeline;portConstraint=eastwest;newEdgeStyle={&quot;edgeStyle&quot;:&quot;elbowEdgeStyle&quot;,&quot;elbow&quot;:&quot;vertical&quot;,&quot;curved&quot;:0,&quot;rounded&quot;:0};" parent="mjIF9ZXAO5rnZLR19kHG-32" vertex="1">
          <mxGeometry x="20" y="490" width="10" height="210" as="geometry" />
        </mxCell>
        <mxCell id="mjIF9ZXAO5rnZLR19kHG-33" value="Αύξηση μείωση τιμής,&lt;br&gt;&amp;nbsp;Αύξηση&amp;nbsp; αποθεμάτων,&amp;nbsp;&lt;span style=&quot;border-color: var(--border-color);&quot; lang=&quot;EL&quot;&gt;&amp;nbsp;&lt;br&gt;και Αριθμό πωλήσεων&lt;/span&gt;" style="text;html=1;align=center;verticalAlign=middle;resizable=0;points=[];autosize=1;strokeColor=none;fillColor=none;" parent="1" vertex="1">
          <mxGeometry x="768.75" y="-40" width="150" height="60" as="geometry" />
        </mxCell>
        <mxCell id="mjIF9ZXAO5rnZLR19kHG-37" value="frame" style="shape=umlFrame;whiteSpace=wrap;html=1;pointerEvents=0;fillColor=#f8cecc;strokeColor=#b85450;" parent="1" vertex="1">
          <mxGeometry x="590" y="580" width="740" height="280" as="geometry" />
        </mxCell>
        <mxCell id="mjIF9ZXAO5rnZLR19kHG-38" value="" style="shape=umlLifeline;perimeter=lifelinePerimeter;whiteSpace=wrap;html=1;container=1;dropTarget=0;collapsible=0;recursiveResize=0;outlineConnect=0;portConstraint=eastwest;newEdgeStyle={&quot;edgeStyle&quot;:&quot;elbowEdgeStyle&quot;,&quot;elbow&quot;:&quot;vertical&quot;,&quot;curved&quot;:0,&quot;rounded&quot;:0};participant=umlEntity;" parent="1" vertex="1">
          <mxGeometry x="1020" y="40" width="40" height="1480" as="geometry" />
        </mxCell>
        <mxCell id="mjIF9ZXAO5rnZLR19kHG-65" value="" style="html=1;points=[];perimeter=orthogonalPerimeter;outlineConnect=0;targetShapes=umlLifeline;portConstraint=eastwest;newEdgeStyle={&quot;edgeStyle&quot;:&quot;elbowEdgeStyle&quot;,&quot;elbow&quot;:&quot;vertical&quot;,&quot;curved&quot;:0,&quot;rounded&quot;:0};" parent="mjIF9ZXAO5rnZLR19kHG-38" vertex="1">
          <mxGeometry x="15" y="360" width="10" height="750" as="geometry" />
        </mxCell>
        <mxCell id="mjIF9ZXAO5rnZLR19kHG-84" value="" style="html=1;points=[];perimeter=orthogonalPerimeter;outlineConnect=0;targetShapes=umlLifeline;portConstraint=eastwest;newEdgeStyle={&quot;edgeStyle&quot;:&quot;elbowEdgeStyle&quot;,&quot;elbow&quot;:&quot;vertical&quot;,&quot;curved&quot;:0,&quot;rounded&quot;:0};" parent="mjIF9ZXAO5rnZLR19kHG-38" vertex="1">
          <mxGeometry x="15" y="1320" width="10" height="70" as="geometry" />
        </mxCell>
        <mxCell id="mjIF9ZXAO5rnZLR19kHG-39" value="προϊόντα&lt;br style=&quot;border-color: var(--border-color);&quot;&gt;&lt;span style=&quot;&quot;&gt;φαρμακείου&lt;/span&gt;" style="text;html=1;align=center;verticalAlign=middle;resizable=0;points=[];autosize=1;strokeColor=none;fillColor=none;" parent="1" vertex="1">
          <mxGeometry x="995" y="-30" width="90" height="40" as="geometry" />
        </mxCell>
        <mxCell id="mjIF9ZXAO5rnZLR19kHG-43" value="" style="shape=umlLifeline;perimeter=lifelinePerimeter;whiteSpace=wrap;html=1;container=1;dropTarget=0;collapsible=0;recursiveResize=0;outlineConnect=0;portConstraint=eastwest;newEdgeStyle={&quot;edgeStyle&quot;:&quot;elbowEdgeStyle&quot;,&quot;elbow&quot;:&quot;vertical&quot;,&quot;curved&quot;:0,&quot;rounded&quot;:0};participant=umlEntity;" parent="1" vertex="1">
          <mxGeometry x="1155" y="40" width="40" height="1480" as="geometry" />
        </mxCell>
        <mxCell id="mjIF9ZXAO5rnZLR19kHG-46" value="" style="html=1;points=[];perimeter=orthogonalPerimeter;outlineConnect=0;targetShapes=umlLifeline;portConstraint=eastwest;newEdgeStyle={&quot;edgeStyle&quot;:&quot;elbowEdgeStyle&quot;,&quot;elbow&quot;:&quot;vertical&quot;,&quot;curved&quot;:0,&quot;rounded&quot;:0};" parent="mjIF9ZXAO5rnZLR19kHG-43" vertex="1">
          <mxGeometry x="15" y="700" width="10" height="60" as="geometry" />
        </mxCell>
        <mxCell id="mjIF9ZXAO5rnZLR19kHG-68" value="" style="html=1;points=[];perimeter=orthogonalPerimeter;outlineConnect=0;targetShapes=umlLifeline;portConstraint=eastwest;newEdgeStyle={&quot;edgeStyle&quot;:&quot;elbowEdgeStyle&quot;,&quot;elbow&quot;:&quot;vertical&quot;,&quot;curved&quot;:0,&quot;rounded&quot;:0};" parent="mjIF9ZXAO5rnZLR19kHG-43" vertex="1">
          <mxGeometry x="15" y="880" width="10" height="110" as="geometry" />
        </mxCell>
        <mxCell id="mjIF9ZXAO5rnZLR19kHG-44" value="παραγγελίες" style="text;html=1;align=center;verticalAlign=middle;resizable=0;points=[];autosize=1;strokeColor=none;fillColor=none;" parent="1" vertex="1">
          <mxGeometry x="1130" y="-15" width="90" height="30" as="geometry" />
        </mxCell>
        <mxCell id="mjIF9ZXAO5rnZLR19kHG-47" value="" style="shape=umlLifeline;perimeter=lifelinePerimeter;whiteSpace=wrap;html=1;container=1;dropTarget=0;collapsible=0;recursiveResize=0;outlineConnect=0;portConstraint=eastwest;newEdgeStyle={&quot;edgeStyle&quot;:&quot;elbowEdgeStyle&quot;,&quot;elbow&quot;:&quot;vertical&quot;,&quot;curved&quot;:0,&quot;rounded&quot;:0};participant=umlBoundary;" parent="1" vertex="1">
          <mxGeometry x="1275" y="40" width="50" height="1480" as="geometry" />
        </mxCell>
        <mxCell id="mjIF9ZXAO5rnZLR19kHG-50" value="" style="html=1;points=[];perimeter=orthogonalPerimeter;outlineConnect=0;targetShapes=umlLifeline;portConstraint=eastwest;newEdgeStyle={&quot;edgeStyle&quot;:&quot;elbowEdgeStyle&quot;,&quot;elbow&quot;:&quot;vertical&quot;,&quot;curved&quot;:0,&quot;rounded&quot;:0};" parent="mjIF9ZXAO5rnZLR19kHG-47" vertex="1">
          <mxGeometry x="20" y="760" width="10" height="40" as="geometry" />
        </mxCell>
        <mxCell id="mjIF9ZXAO5rnZLR19kHG-48" value="αρηθμός &lt;br&gt;πωλήσεων" style="text;html=1;align=center;verticalAlign=middle;resizable=0;points=[];autosize=1;strokeColor=none;fillColor=none;" parent="1" vertex="1">
          <mxGeometry x="1270" y="-20" width="80" height="40" as="geometry" />
        </mxCell>
        <mxCell id="mjIF9ZXAO5rnZLR19kHG-52" value="" style="endArrow=none;html=1;rounded=0;entryX=1.001;entryY=0.217;entryDx=0;entryDy=0;entryPerimeter=0;fillColor=#f8cecc;strokeColor=#b85450;exitX=-0.007;exitY=0.214;exitDx=0;exitDy=0;exitPerimeter=0;" parent="1" source="mjIF9ZXAO5rnZLR19kHG-37" target="mjIF9ZXAO5rnZLR19kHG-37" edge="1">
          <mxGeometry width="50" height="50" relative="1" as="geometry">
            <mxPoint x="710" y="640" as="sourcePoint" />
            <mxPoint x="1000" y="760" as="targetPoint" />
            <Array as="points">
              <mxPoint x="770" y="641" />
            </Array>
          </mxGeometry>
        </mxCell>
        <mxCell id="mjIF9ZXAO5rnZLR19kHG-53" value="" style="endArrow=none;html=1;rounded=0;exitX=0;exitY=0.5;exitDx=0;exitDy=0;exitPerimeter=0;entryX=1.007;entryY=0.503;entryDx=0;entryDy=0;entryPerimeter=0;fillColor=#f8cecc;strokeColor=#b85450;" parent="1" source="mjIF9ZXAO5rnZLR19kHG-37" target="mjIF9ZXAO5rnZLR19kHG-37" edge="1">
          <mxGeometry width="50" height="50" relative="1" as="geometry">
            <mxPoint x="850" y="810" as="sourcePoint" />
            <mxPoint x="900" y="760" as="targetPoint" />
          </mxGeometry>
        </mxCell>
        <mxCell id="mjIF9ZXAO5rnZLR19kHG-54" value="change price" style="text;html=1;align=center;verticalAlign=middle;resizable=0;points=[];autosize=1;strokeColor=none;fillColor=none;" parent="1" vertex="1">
          <mxGeometry x="590" y="608" width="90" height="30" as="geometry" />
        </mxCell>
        <mxCell id="mjIF9ZXAO5rnZLR19kHG-55" value="increase stock" style="text;html=1;align=center;verticalAlign=middle;resizable=0;points=[];autosize=1;strokeColor=none;fillColor=none;" parent="1" vertex="1">
          <mxGeometry x="585" y="638" width="100" height="30" as="geometry" />
        </mxCell>
        <mxCell id="mjIF9ZXAO5rnZLR19kHG-56" value="total sales&lt;br&gt;of product" style="text;html=1;align=center;verticalAlign=middle;resizable=0;points=[];autosize=1;strokeColor=none;fillColor=none;" parent="1" vertex="1">
          <mxGeometry x="590" y="723" width="80" height="40" as="geometry" />
        </mxCell>
        <mxCell id="mjIF9ZXAO5rnZLR19kHG-60" value="out of stock" style="text;html=1;align=center;verticalAlign=middle;resizable=0;points=[];autosize=1;strokeColor=none;fillColor=none;" parent="1" vertex="1">
          <mxGeometry x="-20" y="878" width="80" height="30" as="geometry" />
        </mxCell>
        <mxCell id="mjIF9ZXAO5rnZLR19kHG-62" value="display_categories()" style="html=1;verticalAlign=bottom;endArrow=open;dashed=1;endSize=8;edgeStyle=elbowEdgeStyle;elbow=vertical;curved=0;rounded=0;" parent="1" source="mjIF9ZXAO5rnZLR19kHG-43" target="mjIF9ZXAO5rnZLR19kHG-22" edge="1">
          <mxGeometry x="-0.1904" relative="1" as="geometry">
            <mxPoint x="1035" y="1030" as="sourcePoint" />
            <mxPoint x="880" y="1030" as="targetPoint" />
            <Array as="points">
              <mxPoint x="980" y="1030" />
              <mxPoint x="620" y="1020" />
            </Array>
            <mxPoint as="offset" />
          </mxGeometry>
        </mxCell>
        <mxCell id="mjIF9ZXAO5rnZLR19kHG-66" value="display_products()" style="html=1;verticalAlign=bottom;endArrow=open;dashed=1;endSize=8;edgeStyle=elbowEdgeStyle;elbow=vertical;curved=0;rounded=0;" parent="1" source="mjIF9ZXAO5rnZLR19kHG-65" target="mjIF9ZXAO5rnZLR19kHG-29" edge="1">
          <mxGeometry x="0.0035" relative="1" as="geometry">
            <mxPoint x="980" y="450" as="sourcePoint" />
            <mxPoint x="900" y="450" as="targetPoint" />
            <Array as="points">
              <mxPoint x="983" y="470" />
            </Array>
            <mxPoint as="offset" />
          </mxGeometry>
        </mxCell>
        <mxCell id="mjIF9ZXAO5rnZLR19kHG-70" value="display_products()" style="html=1;verticalAlign=bottom;endArrow=open;dashed=1;endSize=8;edgeStyle=elbowEdgeStyle;elbow=vertical;curved=0;rounded=0;" parent="1" source="mjIF9ZXAO5rnZLR19kHG-38" target="mjIF9ZXAO5rnZLR19kHG-20" edge="1">
          <mxGeometry relative="1" as="geometry">
            <mxPoint x="970" y="1140" as="sourcePoint" />
            <mxPoint x="890" y="1140" as="targetPoint" />
            <Array as="points">
              <mxPoint x="1000" y="1150" />
              <mxPoint x="1020" y="1150" />
              <mxPoint x="820" y="1140" />
            </Array>
          </mxGeometry>
        </mxCell>
        <mxCell id="mjIF9ZXAO5rnZLR19kHG-73" value="" style="shape=umlLifeline;perimeter=lifelinePerimeter;whiteSpace=wrap;html=1;container=1;dropTarget=0;collapsible=0;recursiveResize=0;outlineConnect=0;portConstraint=eastwest;newEdgeStyle={&quot;edgeStyle&quot;:&quot;elbowEdgeStyle&quot;,&quot;elbow&quot;:&quot;vertical&quot;,&quot;curved&quot;:0,&quot;rounded&quot;:0};participant=umlEntity;" parent="1" vertex="1">
          <mxGeometry x="1420" y="40" width="40" height="1480" as="geometry" />
        </mxCell>
        <mxCell id="mjIF9ZXAO5rnZLR19kHG-76" value="" style="html=1;points=[];perimeter=orthogonalPerimeter;outlineConnect=0;targetShapes=umlLifeline;portConstraint=eastwest;newEdgeStyle={&quot;edgeStyle&quot;:&quot;elbowEdgeStyle&quot;,&quot;elbow&quot;:&quot;vertical&quot;,&quot;curved&quot;:0,&quot;rounded&quot;:0};" parent="mjIF9ZXAO5rnZLR19kHG-73" vertex="1">
          <mxGeometry x="15" y="1170" width="10" height="50" as="geometry" />
        </mxCell>
        <mxCell id="mjIF9ZXAO5rnZLR19kHG-88" value="" style="html=1;points=[];perimeter=orthogonalPerimeter;outlineConnect=0;targetShapes=umlLifeline;portConstraint=eastwest;newEdgeStyle={&quot;edgeStyle&quot;:&quot;elbowEdgeStyle&quot;,&quot;elbow&quot;:&quot;vertical&quot;,&quot;curved&quot;:0,&quot;rounded&quot;:0};" parent="mjIF9ZXAO5rnZLR19kHG-73" vertex="1">
          <mxGeometry x="15" y="1390" width="10" height="50" as="geometry" />
        </mxCell>
        <mxCell id="mjIF9ZXAO5rnZLR19kHG-74" value="ενδιαφερόμενα προϊόντα &lt;br&gt;premium" style="text;html=1;align=center;verticalAlign=middle;resizable=0;points=[];autosize=1;strokeColor=none;fillColor=none;" parent="1" vertex="1">
          <mxGeometry x="1365" y="-17.5" width="150" height="40" as="geometry" />
        </mxCell>
        <mxCell id="mjIF9ZXAO5rnZLR19kHG-77" value="" style="shape=umlLifeline;perimeter=lifelinePerimeter;whiteSpace=wrap;html=1;container=1;dropTarget=0;collapsible=0;recursiveResize=0;outlineConnect=0;portConstraint=eastwest;newEdgeStyle={&quot;edgeStyle&quot;:&quot;elbowEdgeStyle&quot;,&quot;elbow&quot;:&quot;vertical&quot;,&quot;curved&quot;:0,&quot;rounded&quot;:0};participant=umlBoundary;" parent="1" vertex="1">
          <mxGeometry x="1560" y="40" width="50" height="1480" as="geometry" />
        </mxCell>
        <mxCell id="mjIF9ZXAO5rnZLR19kHG-81" value="" style="html=1;points=[];perimeter=orthogonalPerimeter;outlineConnect=0;targetShapes=umlLifeline;portConstraint=eastwest;newEdgeStyle={&quot;edgeStyle&quot;:&quot;elbowEdgeStyle&quot;,&quot;elbow&quot;:&quot;vertical&quot;,&quot;curved&quot;:0,&quot;rounded&quot;:0};" parent="mjIF9ZXAO5rnZLR19kHG-77" vertex="1">
          <mxGeometry x="20" y="1220" width="10" height="100" as="geometry" />
        </mxCell>
        <mxCell id="mjIF9ZXAO5rnZLR19kHG-79" value="αριθός premium,&lt;br&gt;&amp;nbsp;προσθήκη εναλλακτικού προϊόντος&lt;br&gt;,αύξηση stock" style="text;html=1;align=center;verticalAlign=middle;resizable=0;points=[];autosize=1;strokeColor=none;fillColor=none;" parent="1" vertex="1">
          <mxGeometry x="1500" y="-30" width="210" height="60" as="geometry" />
        </mxCell>
        <mxCell id="mjIF9ZXAO5rnZLR19kHG-83" value="increase_stock()" style="html=1;verticalAlign=bottom;endArrow=open;dashed=1;endSize=8;edgeStyle=elbowEdgeStyle;elbow=vertical;curved=0;rounded=0;" parent="1" source="mjIF9ZXAO5rnZLR19kHG-77" target="mjIF9ZXAO5rnZLR19kHG-38" edge="1">
          <mxGeometry x="-0.1394" relative="1" as="geometry">
            <mxPoint x="1380" y="1370" as="sourcePoint" />
            <mxPoint x="1300" y="1370" as="targetPoint" />
            <Array as="points">
              <mxPoint x="1090" y="1360" />
              <mxPoint x="1230" y="1370" />
              <mxPoint x="1490" y="1340" />
              <mxPoint x="1100" y="1330" />
            </Array>
            <mxPoint x="1" as="offset" />
          </mxGeometry>
        </mxCell>
        <mxCell id="mjIF9ZXAO5rnZLR19kHG-86" value="transition_in_stock()" style="html=1;align=left;spacingLeft=2;endArrow=block;rounded=0;edgeStyle=orthogonalEdgeStyle;curved=0;rounded=0;" parent="1" edge="1">
          <mxGeometry relative="1" as="geometry">
            <mxPoint x="1040" y="1380" as="sourcePoint" />
            <Array as="points">
              <mxPoint x="1070" y="1410" />
            </Array>
            <mxPoint x="1045" y="1410" as="targetPoint" />
          </mxGeometry>
        </mxCell>
        <mxCell id="mjIF9ZXAO5rnZLR19kHG-89" value="" style="shape=umlLifeline;perimeter=lifelinePerimeter;whiteSpace=wrap;html=1;container=1;dropTarget=0;collapsible=0;recursiveResize=0;outlineConnect=0;portConstraint=eastwest;newEdgeStyle={&quot;edgeStyle&quot;:&quot;elbowEdgeStyle&quot;,&quot;elbow&quot;:&quot;vertical&quot;,&quot;curved&quot;:0,&quot;rounded&quot;:0};participant=umlEntity;" parent="1" vertex="1">
          <mxGeometry x="1760" y="40" width="40" height="1480" as="geometry" />
        </mxCell>
        <mxCell id="mjIF9ZXAO5rnZLR19kHG-91" value="premium" style="text;html=1;align=center;verticalAlign=middle;resizable=0;points=[];autosize=1;strokeColor=none;fillColor=none;" parent="1" vertex="1">
          <mxGeometry x="1745" y="-7.5" width="70" height="30" as="geometry" />
        </mxCell>
        <mxCell id="5QEGqwwI6IggPLn_ekYq-3" value="alternative" style="shape=umlFrame;whiteSpace=wrap;html=1;pointerEvents=0;fillColor=#f8cecc;strokeColor=#b85450;" parent="1" vertex="1">
          <mxGeometry x="1460" y="1290" width="490" height="80" as="geometry" />
        </mxCell>
        <mxCell id="5QEGqwwI6IggPLn_ekYq-6" value="Προσθήκη εναλλακτικού προϊόντος για το&amp;nbsp;out&lt;span style=&quot;border-color: var(--border-color); line-height: 12.84px; font-family: Arial, sans-serif;&quot; lang=&quot;EN-US&quot;&gt;&amp;nbsp;&lt;/span&gt;&lt;span style=&quot;border-color: var(--border-color); line-height: 12.84px; font-family: Arial, sans-serif;&quot; lang=&quot;EN-US&quot;&gt;of&lt;/span&gt;&lt;span style=&quot;border-color: var(--border-color); line-height: 12.84px; font-family: Arial, sans-serif;&quot; lang=&quot;EN-US&quot;&gt;&amp;nbsp;&lt;/span&gt;&lt;span style=&quot;border-color: var(--border-color); line-height: 12.84px; font-family: Arial, sans-serif;&quot; lang=&quot;EN-US&quot;&gt;stock&lt;/span&gt;&lt;span style=&quot;border-color: var(--border-color); line-height: 12.84px; font-family: Arial, sans-serif;&quot;&gt;&amp;nbsp;προϊόν&lt;/span&gt;" style="ellipse;whiteSpace=wrap;html=1;fillColor=#d5e8d4;strokeColor=#82b366;" parent="1" vertex="1">
          <mxGeometry x="2055" y="1280" width="140" height="70" as="geometry" />
        </mxCell>
        <mxCell id="5QEGqwwI6IggPLn_ekYq-8" value="" style="endArrow=classic;html=1;rounded=0;entryX=0;entryY=0.5;entryDx=0;entryDy=0;fillColor=#d5e8d4;strokeColor=#000000;" parent="1" source="mjIF9ZXAO5rnZLR19kHG-81" target="5QEGqwwI6IggPLn_ekYq-6" edge="1">
          <mxGeometry width="50" height="50" relative="1" as="geometry">
            <mxPoint x="1590" y="1330" as="sourcePoint" />
            <mxPoint x="1710" y="1350" as="targetPoint" />
            <Array as="points">
              <mxPoint x="1680" y="1320" />
            </Array>
          </mxGeometry>
        </mxCell>
        <mxCell id="5QEGqwwI6IggPLn_ekYq-9" value="alternative product" style="text;html=1;align=center;verticalAlign=middle;resizable=0;points=[];autosize=1;strokeColor=none;fillColor=none;" parent="1" vertex="1">
          <mxGeometry x="1450" y="1310" width="120" height="30" as="geometry" />
        </mxCell>
        <mxCell id="5QEGqwwI6IggPLn_ekYq-10" value="increase stock" style="text;html=1;align=center;verticalAlign=middle;resizable=0;points=[];autosize=1;strokeColor=none;fillColor=none;" parent="1" vertex="1">
          <mxGeometry x="1450" y="1330" width="100" height="30" as="geometry" />
        </mxCell>
        <mxCell id="2B_nDuqq9ND4ZhAVYhM--1" value=":main_screen" style="rounded=0;whiteSpace=wrap;html=1;" parent="1" vertex="1">
          <mxGeometry x="195" y="30" width="120" height="60" as="geometry" />
        </mxCell>
        <mxCell id="2B_nDuqq9ND4ZhAVYhM--2" value=":choose_instock_&lt;br&gt;outofstock_screen" style="whiteSpace=wrap;html=1;" parent="1" vertex="1">
          <mxGeometry x="345" y="25" width="120" height="60" as="geometry" />
        </mxCell>
        <mxCell id="2B_nDuqq9ND4ZhAVYhM--4" value=":category_products_&lt;br&gt;screen" style="whiteSpace=wrap;html=1;" parent="1" vertex="1">
          <mxGeometry x="625" y="25" width="120" height="60" as="geometry" />
        </mxCell>
        <mxCell id="2B_nDuqq9ND4ZhAVYhM--5" value=":category_screen" style="whiteSpace=wrap;html=1;" parent="1" vertex="1">
          <mxGeometry x="485" y="25" width="120" height="60" as="geometry" />
        </mxCell>
        <mxCell id="2B_nDuqq9ND4ZhAVYhM--6" value=":product_management_&lt;br&gt;screen" style="whiteSpace=wrap;html=1;" parent="1" vertex="1">
          <mxGeometry x="777.5" y="25" width="132.5" height="55" as="geometry" />
        </mxCell>
        <mxCell id="2B_nDuqq9ND4ZhAVYhM--7" value=":inventory" style="whiteSpace=wrap;html=1;" parent="1" vertex="1">
          <mxGeometry x="980" y="22.5" width="120" height="60" as="geometry" />
        </mxCell>
        <mxCell id="2B_nDuqq9ND4ZhAVYhM--8" value=":orders" style="whiteSpace=wrap;html=1;" parent="1" vertex="1">
          <mxGeometry x="1115" y="23" width="120" height="60" as="geometry" />
        </mxCell>
        <mxCell id="2B_nDuqq9ND4ZhAVYhM--9" value=":number_of_sales_&lt;br&gt;screen" style="whiteSpace=wrap;html=1;" parent="1" vertex="1">
          <mxGeometry x="1240" y="23" width="120" height="60" as="geometry" />
        </mxCell>
        <mxCell id="2B_nDuqq9ND4ZhAVYhM--10" value=":premium_interest" style="rounded=0;whiteSpace=wrap;html=1;" parent="1" vertex="1">
          <mxGeometry x="1380" y="23" width="120" height="60" as="geometry" />
        </mxCell>
        <mxCell id="2B_nDuqq9ND4ZhAVYhM--11" value=":increase_stock_add_&lt;br&gt;alt_product_screen" style="whiteSpace=wrap;html=1;" parent="1" vertex="1">
          <mxGeometry x="1525" y="22.5" width="120" height="60" as="geometry" />
        </mxCell>
        <mxCell id="2B_nDuqq9ND4ZhAVYhM--12" value=":premium" style="whiteSpace=wrap;html=1;" parent="1" vertex="1">
          <mxGeometry x="1725" y="23" width="110" height="60" as="geometry" />
        </mxCell>
        <mxCell id="DYYXtmuVU89pj0rcRZzp-2" value="select_product_management()" style="html=1;verticalAlign=bottom;endArrow=block;edgeStyle=elbowEdgeStyle;elbow=vertical;curved=0;rounded=0;" parent="1" source="mjIF9ZXAO5rnZLR19kHG-1" target="mjIF9ZXAO5rnZLR19kHG-2" edge="1">
          <mxGeometry x="0.0054" width="80" relative="1" as="geometry">
            <mxPoint x="330" y="270" as="sourcePoint" />
            <mxPoint x="410" y="270" as="targetPoint" />
            <Array as="points">
              <mxPoint x="220" y="140" />
              <mxPoint x="200" y="170" />
            </Array>
            <mxPoint as="offset" />
          </mxGeometry>
        </mxCell>
        <mxCell id="DYYXtmuVU89pj0rcRZzp-3" value="display_stocks()" style="html=1;verticalAlign=bottom;endArrow=block;edgeStyle=elbowEdgeStyle;elbow=vertical;curved=0;rounded=0;" parent="1" source="mjIF9ZXAO5rnZLR19kHG-2" target="mjIF9ZXAO5rnZLR19kHG-9" edge="1">
          <mxGeometry width="80" relative="1" as="geometry">
            <mxPoint x="330" y="370" as="sourcePoint" />
            <mxPoint x="410" y="370" as="targetPoint" />
            <Array as="points">
              <mxPoint x="360" y="200" />
              <mxPoint x="330" y="210" />
            </Array>
          </mxGeometry>
        </mxCell>
        <mxCell id="DYYXtmuVU89pj0rcRZzp-4" value="select_stocks()" style="html=1;verticalAlign=bottom;endArrow=block;edgeStyle=elbowEdgeStyle;elbow=vertical;curved=0;rounded=0;" parent="1" source="mjIF9ZXAO5rnZLR19kHG-1" target="mjIF9ZXAO5rnZLR19kHG-9" edge="1">
          <mxGeometry x="-0.2103" width="80" relative="1" as="geometry">
            <mxPoint x="260" y="250" as="sourcePoint" />
            <mxPoint x="340" y="250" as="targetPoint" />
            <Array as="points">
              <mxPoint x="310" y="240" />
              <mxPoint x="340" y="250" />
            </Array>
            <mxPoint x="1" as="offset" />
          </mxGeometry>
        </mxCell>
        <mxCell id="DYYXtmuVU89pj0rcRZzp-5" value="display_categories()" style="html=1;verticalAlign=bottom;endArrow=block;edgeStyle=elbowEdgeStyle;elbow=vertical;curved=0;rounded=0;" parent="1" source="mjIF9ZXAO5rnZLR19kHG-9" target="mjIF9ZXAO5rnZLR19kHG-23" edge="1">
          <mxGeometry width="80" relative="1" as="geometry">
            <mxPoint x="330" y="370" as="sourcePoint" />
            <mxPoint x="410" y="370" as="targetPoint" />
            <Array as="points">
              <mxPoint x="500" y="320" />
            </Array>
          </mxGeometry>
        </mxCell>
        <mxCell id="DYYXtmuVU89pj0rcRZzp-6" value="select_category()" style="html=1;verticalAlign=bottom;endArrow=block;edgeStyle=elbowEdgeStyle;elbow=vertical;curved=0;rounded=0;" parent="1" source="mjIF9ZXAO5rnZLR19kHG-1" target="mjIF9ZXAO5rnZLR19kHG-23" edge="1">
          <mxGeometry x="0.0648" width="80" relative="1" as="geometry">
            <mxPoint x="330" y="370" as="sourcePoint" />
            <mxPoint x="410" y="370" as="targetPoint" />
            <Array as="points">
              <mxPoint x="350" y="360" />
              <mxPoint x="430" y="380" />
            </Array>
            <mxPoint x="1" as="offset" />
          </mxGeometry>
        </mxCell>
        <mxCell id="DYYXtmuVU89pj0rcRZzp-7" value="search_instock_products()" style="html=1;verticalAlign=bottom;endArrow=block;edgeStyle=elbowEdgeStyle;elbow=vertical;curved=0;rounded=0;" parent="1" source="mjIF9ZXAO5rnZLR19kHG-22" target="mjIF9ZXAO5rnZLR19kHG-38" edge="1">
          <mxGeometry width="80" relative="1" as="geometry">
            <mxPoint x="680" y="370" as="sourcePoint" />
            <mxPoint x="760" y="370" as="targetPoint" />
            <Array as="points">
              <mxPoint x="700" y="400" />
              <mxPoint x="730" y="430" />
            </Array>
          </mxGeometry>
        </mxCell>
        <mxCell id="DYYXtmuVU89pj0rcRZzp-8" value="select_product()" style="html=1;verticalAlign=bottom;endArrow=block;edgeStyle=elbowEdgeStyle;elbow=vertical;curved=0;rounded=0;" parent="1" source="mjIF9ZXAO5rnZLR19kHG-1" target="mjIF9ZXAO5rnZLR19kHG-20" edge="1">
          <mxGeometry x="0.0016" width="80" relative="1" as="geometry">
            <mxPoint x="470" y="670" as="sourcePoint" />
            <mxPoint x="550" y="670" as="targetPoint" />
            <Array as="points">
              <mxPoint x="610" y="500" />
              <mxPoint x="340" y="520" />
            </Array>
            <mxPoint as="offset" />
          </mxGeometry>
        </mxCell>
        <mxCell id="DYYXtmuVU89pj0rcRZzp-9" value="display_options()" style="html=1;verticalAlign=bottom;endArrow=block;edgeStyle=elbowEdgeStyle;elbow=vertical;curved=0;rounded=0;" parent="1" source="mjIF9ZXAO5rnZLR19kHG-20" target="mjIF9ZXAO5rnZLR19kHG-35" edge="1">
          <mxGeometry x="-0.0289" width="80" relative="1" as="geometry">
            <mxPoint x="470" y="670" as="sourcePoint" />
            <mxPoint x="550" y="670" as="targetPoint" />
            <Array as="points">
              <mxPoint x="820" y="530" />
              <mxPoint x="800" y="550" />
            </Array>
            <mxPoint as="offset" />
          </mxGeometry>
        </mxCell>
        <mxCell id="DYYXtmuVU89pj0rcRZzp-10" value="select_option()" style="html=1;verticalAlign=bottom;endArrow=block;edgeStyle=elbowEdgeStyle;elbow=vertical;curved=0;rounded=0;" parent="1" source="mjIF9ZXAO5rnZLR19kHG-1" target="mjIF9ZXAO5rnZLR19kHG-35" edge="1">
          <mxGeometry width="80" relative="1" as="geometry">
            <mxPoint x="470" y="670" as="sourcePoint" />
            <mxPoint x="550" y="670" as="targetPoint" />
            <Array as="points">
              <mxPoint x="520" y="560" />
              <mxPoint x="530" y="590" />
            </Array>
          </mxGeometry>
        </mxCell>
        <mxCell id="DYYXtmuVU89pj0rcRZzp-11" value="chenge_price()" style="html=1;verticalAlign=bottom;endArrow=block;edgeStyle=elbowEdgeStyle;elbow=vertical;curved=0;rounded=0;" parent="1" source="mjIF9ZXAO5rnZLR19kHG-35" target="mjIF9ZXAO5rnZLR19kHG-65" edge="1">
          <mxGeometry width="80" relative="1" as="geometry">
            <mxPoint x="860" y="670" as="sourcePoint" />
            <mxPoint x="550" y="670" as="targetPoint" />
            <Array as="points">
              <mxPoint x="1000" y="620" />
            </Array>
          </mxGeometry>
        </mxCell>
        <mxCell id="DYYXtmuVU89pj0rcRZzp-12" value="increase_stock()" style="html=1;verticalAlign=bottom;endArrow=block;edgeStyle=elbowEdgeStyle;elbow=vertical;curved=0;rounded=0;" parent="1" source="mjIF9ZXAO5rnZLR19kHG-35" target="mjIF9ZXAO5rnZLR19kHG-38" edge="1">
          <mxGeometry x="-0.1557" width="80" relative="1" as="geometry">
            <mxPoint x="860" y="670" as="sourcePoint" />
            <mxPoint x="840" y="670" as="targetPoint" />
            <Array as="points">
              <mxPoint x="990" y="690" />
              <mxPoint x="880" y="670" />
            </Array>
            <mxPoint as="offset" />
          </mxGeometry>
        </mxCell>
        <mxCell id="DYYXtmuVU89pj0rcRZzp-13" value="get_sales()" style="html=1;verticalAlign=bottom;endArrow=block;edgeStyle=elbowEdgeStyle;elbow=vertical;curved=0;rounded=0;" parent="1" source="mjIF9ZXAO5rnZLR19kHG-35" target="mjIF9ZXAO5rnZLR19kHG-43" edge="1">
          <mxGeometry width="80" relative="1" as="geometry">
            <mxPoint x="860" y="670" as="sourcePoint" />
            <mxPoint x="840" y="670" as="targetPoint" />
            <Array as="points">
              <mxPoint x="1020" y="740" />
              <mxPoint x="1040" y="710" />
              <mxPoint x="940" y="740" />
            </Array>
          </mxGeometry>
        </mxCell>
        <mxCell id="DYYXtmuVU89pj0rcRZzp-14" value="display_sales()" style="html=1;verticalAlign=bottom;endArrow=block;edgeStyle=elbowEdgeStyle;elbow=vertical;curved=0;rounded=0;" parent="1" source="mjIF9ZXAO5rnZLR19kHG-43" target="mjIF9ZXAO5rnZLR19kHG-50" edge="1">
          <mxGeometry width="80" relative="1" as="geometry">
            <mxPoint x="1210" y="820" as="sourcePoint" />
            <mxPoint x="1290" y="820" as="targetPoint" />
            <Array as="points">
              <mxPoint x="1270" y="800" />
            </Array>
          </mxGeometry>
        </mxCell>
        <mxCell id="DYYXtmuVU89pj0rcRZzp-15" value="get_sum_outofstock()" style="html=1;verticalAlign=bottom;endArrow=block;edgeStyle=elbowEdgeStyle;elbow=vertical;curved=0;rounded=0;" parent="1" source="mjIF9ZXAO5rnZLR19kHG-9" target="mjIF9ZXAO5rnZLR19kHG-43" edge="1">
          <mxGeometry width="80" relative="1" as="geometry">
            <mxPoint x="760" y="870" as="sourcePoint" />
            <mxPoint x="840" y="870" as="targetPoint" />
            <Array as="points">
              <mxPoint x="570" y="920" />
              <mxPoint x="1090" y="940" />
            </Array>
          </mxGeometry>
        </mxCell>
        <mxCell id="DYYXtmuVU89pj0rcRZzp-16" value="select_category()" style="html=1;verticalAlign=bottom;endArrow=block;edgeStyle=elbowEdgeStyle;elbow=vertical;curved=0;rounded=0;" parent="1" source="mjIF9ZXAO5rnZLR19kHG-1" target="mjIF9ZXAO5rnZLR19kHG-22" edge="1">
          <mxGeometry width="80" relative="1" as="geometry">
            <mxPoint x="430" y="970" as="sourcePoint" />
            <mxPoint x="510" y="970" as="targetPoint" />
            <Array as="points">
              <mxPoint x="370" y="1060" />
            </Array>
          </mxGeometry>
        </mxCell>
        <mxCell id="DYYXtmuVU89pj0rcRZzp-17" value="search_outofstock_products()" style="html=1;verticalAlign=bottom;endArrow=block;edgeStyle=elbowEdgeStyle;elbow=vertical;curved=0;rounded=0;" parent="1" source="mjIF9ZXAO5rnZLR19kHG-22" target="mjIF9ZXAO5rnZLR19kHG-38" edge="1">
          <mxGeometry x="0.0323" width="80" relative="1" as="geometry">
            <mxPoint x="670" y="970" as="sourcePoint" />
            <mxPoint x="750" y="970" as="targetPoint" />
            <Array as="points">
              <mxPoint x="730" y="1090" />
              <mxPoint x="670" y="990" />
            </Array>
            <mxPoint x="1" as="offset" />
          </mxGeometry>
        </mxCell>
        <mxCell id="DYYXtmuVU89pj0rcRZzp-18" value="select_product()" style="html=1;verticalAlign=bottom;endArrow=block;edgeStyle=elbowEdgeStyle;elbow=vertical;curved=0;rounded=0;" parent="1" source="mjIF9ZXAO5rnZLR19kHG-1" target="mjIF9ZXAO5rnZLR19kHG-20" edge="1">
          <mxGeometry width="80" relative="1" as="geometry">
            <mxPoint x="670" y="970" as="sourcePoint" />
            <mxPoint x="750" y="970" as="targetPoint" />
            <Array as="points">
              <mxPoint x="480" y="1180" />
              <mxPoint x="620" y="1130" />
            </Array>
          </mxGeometry>
        </mxCell>
        <mxCell id="DYYXtmuVU89pj0rcRZzp-19" value="calculate_premium_interest()" style="html=1;verticalAlign=bottom;endArrow=block;edgeStyle=elbowEdgeStyle;elbow=vertical;curved=0;rounded=0;" parent="1" source="mjIF9ZXAO5rnZLR19kHG-71" target="mjIF9ZXAO5rnZLR19kHG-73" edge="1">
          <mxGeometry width="80" relative="1" as="geometry">
            <mxPoint x="1100" y="1170" as="sourcePoint" />
            <mxPoint x="1190" y="1170" as="targetPoint" />
            <Array as="points">
              <mxPoint x="1160" y="1210" />
            </Array>
          </mxGeometry>
        </mxCell>
        <mxCell id="DYYXtmuVU89pj0rcRZzp-20" value="display()" style="html=1;verticalAlign=bottom;endArrow=block;edgeStyle=elbowEdgeStyle;elbow=vertical;curved=0;rounded=0;" parent="1" source="mjIF9ZXAO5rnZLR19kHG-76" target="mjIF9ZXAO5rnZLR19kHG-81" edge="1">
          <mxGeometry width="80" relative="1" as="geometry">
            <mxPoint x="1490" y="1260" as="sourcePoint" />
            <mxPoint x="1570" y="1260" as="targetPoint" />
            <Array as="points">
              <mxPoint x="1550" y="1260" />
            </Array>
            <mxPoint as="offset" />
          </mxGeometry>
        </mxCell>
        <mxCell id="DYYXtmuVU89pj0rcRZzp-21" value="select_option()" style="html=1;verticalAlign=bottom;endArrow=block;edgeStyle=elbowEdgeStyle;elbow=vertical;curved=0;rounded=0;" parent="1" source="mjIF9ZXAO5rnZLR19kHG-1" target="mjIF9ZXAO5rnZLR19kHG-77" edge="1">
          <mxGeometry x="-0.062" width="80" relative="1" as="geometry">
            <mxPoint x="1050" y="1170" as="sourcePoint" />
            <mxPoint x="1130" y="1170" as="targetPoint" />
            <Array as="points">
              <mxPoint x="960" y="1280" />
              <mxPoint x="1420" y="1240" />
            </Array>
            <mxPoint as="offset" />
          </mxGeometry>
        </mxCell>
        <mxCell id="DYYXtmuVU89pj0rcRZzp-22" value="search_premium_users()" style="html=1;verticalAlign=bottom;endArrow=block;edgeStyle=elbowEdgeStyle;elbow=vertical;curved=0;rounded=0;" parent="1" source="mjIF9ZXAO5rnZLR19kHG-84" target="mjIF9ZXAO5rnZLR19kHG-73" edge="1">
          <mxGeometry x="0.0012" width="80" relative="1" as="geometry">
            <mxPoint x="1470" y="1370" as="sourcePoint" />
            <mxPoint x="1550" y="1370" as="targetPoint" />
            <Array as="points">
              <mxPoint x="1260" y="1430" />
              <mxPoint x="1380" y="1450" />
            </Array>
            <mxPoint as="offset" />
          </mxGeometry>
        </mxCell>
        <mxCell id="DYYXtmuVU89pj0rcRZzp-23" value="notify_premium()" style="html=1;verticalAlign=bottom;endArrow=block;edgeStyle=elbowEdgeStyle;elbow=vertical;curved=0;rounded=0;" parent="1" source="mjIF9ZXAO5rnZLR19kHG-73" target="mjIF9ZXAO5rnZLR19kHG-89" edge="1">
          <mxGeometry width="80" relative="1" as="geometry">
            <mxPoint x="1470" y="1410" as="sourcePoint" />
            <mxPoint x="1550" y="1410" as="targetPoint" />
            <Array as="points">
              <mxPoint x="1680" y="1480" />
              <mxPoint x="1640" y="1400" />
            </Array>
          </mxGeometry>
        </mxCell>
        <mxCell id="YjAzsIfKAirJvRMS5_ws-1" value="" style="line;strokeWidth=1;fillColor=#f8cecc;align=left;verticalAlign=middle;spacingTop=-1;spacingLeft=3;spacingRight=3;rotatable=0;labelPosition=right;points=[];portConstraint=eastwest;strokeColor=#b85450;" parent="1" vertex="1">
          <mxGeometry x="-20" y="870" width="1410" height="8" as="geometry" />
        </mxCell>
        <mxCell id="YjAzsIfKAirJvRMS5_ws-2" value="" style="line;strokeWidth=1;fillColor=#f8cecc;align=left;verticalAlign=middle;spacingTop=-1;spacingLeft=3;spacingRight=3;rotatable=0;labelPosition=right;points=[];portConstraint=eastwest;strokeColor=#b85450;" parent="1" vertex="1">
          <mxGeometry x="1460" y="1332" width="490" height="8" as="geometry" />
        </mxCell>
      </root>
    </mxGraphModel>
  </diagram>
</mxfile>
